name analog
datacolumns 19
datarows 33
range 0.6965 0.7125
endheader
time	ground_force_vx	ground_force_vy	ground_force_vz	ground_force_px	ground_force_py	ground_force_pz	l_ground_force_vx	l_ground_force_vy	l_ground_force_vz	l_ground_force_px	l_ground_force_py	l_ground_force_pz	ground_torque_x	ground_torque_y	ground_torque_z	l_ground_torque_x	l_ground_torque_y	l_ground_torque_z
0.6965	-0.0	-0.0	-0.0	25.90701675415039	149.41629028320312	-1739.38427734375	78.12527465820312	-227.9581298828125	-1478.308837890625	-0.0	-0.0	-0.0	-0.0	-0.0	-0.0	345436.96875	99419.15625	-13894.798828125
0.6970000000000001	-0.0	-0.0	-0.0	213.61363220214844	70.8567123413086	-2001.806640625	215.73452758789065	-215.91598510742188	-1680.108642578125	-0.0	-0.0	-0.0	-0.0	-0.0	-0.0	405537.53125	80651.6328125	22056.25
0.6975	-0.0	-0.0	-0.0	294.2439270019531	68.93063354492188	-1924.2880859375	243.22720336914065	-247.58799743652344	-1596.5828857421875	-0.0	-0.0	-0.0	-0.0	-0.0	-0.0	384133.59375	79781.5703125	31268.32421875
0.6980000000000001	-0.0	-0.0	-0.0	131.95733642578125	127.07130432128906	-1708.510498046875	102.2303695678711	-280.1192932128906	-1393.50830078125	-0.0	-0.0	-0.0	-0.0	-0.0	-0.0	327741.90625	93453.9921875	-3827.40771484375
0.6985	-0.0	-0.0	-0.0	-25.27257537841797	168.4390411376953	-1534.149658203125	-13.841533660888672	-291.22491455078125	-1222.3154296875	-0.0	-0.0	-0.0	-0.0	-0.0	-0.0	281976.8125	103379.234375	-33143.71484375
0.6990000000000001	-0.0	-0.0	-0.0	-101.10482025146484	176.6590118408203	-1401.8245849609375	-54.87377166748047	-272.0714416503906	-1090.09912109375	-0.0	-0.0	-0.0	-0.0	-0.0	-0.0	248848.328125	105055.5859375	-42625.234375
0.6995	-0.0	-0.0	-0.0	-108.70435333251952	164.4835205078125	-1304.2178955078125	-57.57024002075195	-237.86431884765625	-993.95361328125	-0.0	-0.0	-0.0	-0.0	-0.0	-0.0	226135.296875	102924.1953125	-42223.88671875
0.7000000000000001	-0.0	-0.0	-0.0	-110.06666564941406	148.09487915039062	-1247.217041015625	-65.87287902832031	-210.3344573974609	-928.18798828125	-0.0	-0.0	-0.0	-0.0	-0.0	-0.0	211557.546875	100063.53125	-43288.9375
0.7005	-0.0	-0.0	-0.0	-115.74275207519533	136.56585693359375	-1219.6568603515625	-77.67326354980469	-193.4344940185547	-874.7752685546875	-0.0	-0.0	-0.0	-0.0	-0.0	-0.0	199979.921875	96741.8515625	-45666.37890625
0.7010000000000001	-0.0	-0.0	-0.0	-115.30043029785156	129.7935333251953	-1209.4154052734375	-81.72605895996094	-176.77337646484375	-825.7835083007812	-0.0	-0.0	-0.0	-0.0	-0.0	-0.0	189166.34375	93480.5703125	-46348.3359375
0.7015	-0.0	-0.0	-0.0	-106.98065185546876	121.32371520996094	-1213.636474609375	-81.99557495117188	-163.90452575683594	-780.3864135742188	-0.0	-0.0	-0.0	-0.0	-0.0	-0.0	179157.21875	89499.3984375	-45783.26171875
0.7020000000000001	-0.0	-0.0	-0.0	-89.03224182128906	109.31661987304688	-1224.236083984375	-83.62203216552734	-152.33763122558594	-741.1625366210938	-0.0	-0.0	-0.0	-0.0	-0.0	-0.0	170127.734375	85967.7109375	-45326.19921875
0.7025	-0.0	-0.0	-0.0	-64.88971710205078	101.67032623291016	-1232.130615234375	-84.83379364013672	-140.6776123046875	-701.705810546875	-0.0	-0.0	-0.0	-0.0	-0.0	-0.0	161290.703125	82070.4453125	-44899.6171875
0.7030000000000001	-0.0	-0.0	-0.0	-43.26315689086914	101.45767974853516	-1227.3118896484375	-83.8343734741211	-129.72671508789062	-664.3543701171875	-0.0	-0.0	-0.0	-0.0	-0.0	-0.0	152824.546875	78238.6796875	-43739.31640625
0.7035	-0.0	-0.0	-0.0	-31.18046188354492	109.23263549804688	-1203.0819091796875	-80.05154418945312	-118.86266326904295	-626.2998046875	-0.0	-0.0	-0.0	-0.0	-0.0	-0.0	144101.75	73901.09375	-41510.12109375
0.704	-0.0	-0.0	-0.0	-30.868484497070312	120.37174987792967	-1161.2010498046875	-74.81938934326172	-109.05647277832033	-586.3861083984375	-0.0	-0.0	-0.0	-0.0	-0.0	-0.0	134753.640625	69334.484375	-38952.90625
0.7045	-0.0	-0.0	-0.0	-35.11685562133789	130.0662841796875	-1109.061767578125	-69.55418395996094	-101.49468994140624	-543.67431640625	-0.0	-0.0	-0.0	-0.0	-0.0	-0.0	125282.9140625	64242.5859375	-36250.72265625
0.705	-0.0	-0.0	-0.0	-40.31190490722656	135.68869018554688	-1051.039794921875	-63.88054275512695	-95.22126007080078	-501.5556640625	-0.0	-0.0	-0.0	-0.0	-0.0	-0.0	115267.1484375	59351.1796875	-33179.38671875
0.7055	-0.0	-0.0	-0.0	-45.31500244140625	137.234375	-990.4022216796876	-56.72746658325195	-89.98078155517578	-457.3280029296875	-0.0	-0.0	-0.0	-0.0	-0.0	-0.0	104715.3125	54285.07421875	-30057.25
0.706	-0.0	-0.0	-0.0	-47.37078094482422	134.88677978515625	-928.8411865234376	-49.39729309082031	-84.68012237548828	-413.1154479980469	-0.0	-0.0	-0.0	-0.0	-0.0	-0.0	94025.4296875	48945.39453125	-26423.08203125
0.7065	-0.0	-0.0	-0.0	-47.192359924316406	130.22605895996094	-866.4628295898438	-41.52902603149414	-79.1465072631836	-369.5946044921875	-0.0	-0.0	-0.0	-0.0	-0.0	-0.0	83918.765625	43605.6484375	-22787.240234375
0.707	-0.0	-0.0	-0.0	-45.0254020690918	124.87628173828124	-803.4818725585938	-33.99146270751953	-73.52896881103516	-326.63592529296875	-0.0	-0.0	-0.0	-0.0	-0.0	-0.0	73830.40625	38139.37890625	-19299.1796875
0.7075	-0.0	-0.0	-0.0	-41.313995361328125	118.78746795654295	-743.2037353515625	-27.42067146301269	-67.28668975830078	-282.4243469238281	-0.0	-0.0	-0.0	-0.0	-0.0	-0.0	64100.8515625	33084.83984375	-15931.6669921875
0.708	-0.0	-0.0	-0.0	-37.38918685913086	112.22265625	-684.8233642578125	-20.94523429870605	-61.10019302368164	-242.61557006835935	-0.0	-0.0	-0.0	-0.0	-0.0	-0.0	54577.4453125	28424.4453125	-12939.826171875
0.7085	-0.0	-0.0	-0.0	-31.65216636657715	105.56358337402344	-627.71435546875	-15.5064115524292	-54.30488586425781	-205.2695159912109	-0.0	-0.0	-0.0	-0.0	-0.0	-0.0	46446.390625	24062.3203125	-10302.0673828125
0.709	-0.0	-0.0	-0.0	-25.881818771362305	97.99568176269533	-574.1239624023438	-10.508572578430176	-47.736793518066406	-171.50421142578125	-0.0	-0.0	-0.0	-0.0	-0.0	-0.0	38248.8515625	20004.017578125	-7875.54833984375
0.7095	-0.0	-0.0	-0.0	-19.11069107055664	89.2391586303711	-524.0975952148438	-7.254544258117676	-40.95894241333008	-142.157470703125	-0.0	-0.0	-0.0	-0.0	-0.0	-0.0	31578.185546875	16395.595703125	-5893.52490234375
0.71	-0.0	-0.0	-0.0	-11.171747207641602	80.83975219726562	-479.6876831054688	-4.022486686706543	-35.01688003540039	-115.98429870605467	-0.0	-0.0	-0.0	-0.0	-0.0	-0.0	25576.671875	13504.8349609375	-4237.05029296875
0.7105	-0.0	-0.0	-0.0	-2.992704391479492	72.78211975097656	-437.2339782714844	-0.7707449197769165	-29.06356430053711	-95.12336730957033	-0.0	-0.0	-0.0	-0.0	-0.0	-0.0	20454.8984375	10805.3505859375	-2849.31787109375
0.711	-0.0	-0.0	-0.0	4.155885696411133	64.84100341796875	-400.3487548828125	0.7648406624794006	-24.471059799194336	-75.8247299194336	-0.0	-0.0	-0.0	-0.0	-0.0	-0.0	16488.404296875	8676.9228515625	-1797.7347412109375
0.7115	-0.0	-0.0	-0.0	9.237391471862791	59.2506103515625	-370.0745239257813	2.487004041671753	-19.87546730041504	-60.548099517822266	-0.0	-0.0	-0.0	-0.0	-0.0	-0.0	12941.00390625	6886.912109375	-797.0868530273438
0.712	-0.0	-0.0	-0.0	13.436644554138184	53.306583404541016	-340.8578796386719	3.633965969085693	-16.69912338256836	-50.18228149414063	-0.0	-0.0	-0.0	-0.0	-0.0	-0.0	10643.171875	5609.8701171875	-181.7655029296875
0.7125	-0.0	-0.0	-0.0	15.128076553344728	48.85370635986328	-316.1366271972656	4.650204658508301	-14.430240631103516	-41.4671745300293	-0.0	-0.0	-0.0	-0.0	-0.0	-0.0	8774.75	4632.74267578125	137.70758056640625
